<svg id="Layer_1" data-name="Layer 1" xmlns="http://www.w3.org/2000/svg" viewBox="0 0 1098 247"><clipPath id="svgPath"><path d="M254.21,88.86c1.89-5.68,3.39-10.34,5-15,3.45-10.07,7-20.1,10.36-30.21,1-3.09,2.38-4.72,6-4.41a103.9,103.9,0,0,0,12.48.05c2.63-.09,3.55,1,3.55,3.54,0,19.82,0,39.65-.16,59.47,0,1.12-1.88,3-3.08,3.17-3.06.46-6.24.16-10.07.16V52.26l-1.39-.19c-.5,1.78-.91,3.59-1.5,5.34-5.16,15.11-10.45,30.17-15.46,45.33-1.25,3.78-4,2.87-6.46,2.87-2.65,0-5.55,1-6.85-3-5.33-16.27-10.91-32.45-16.42-48.66a3.14,3.14,0,0,0-2-1.92c-.07,1.52-.23,3-.21,4.56.18,14.32.16,28.65.73,42.95.21,5.32-1.63,6.9-6.53,6.17a40,40,0,0,0-5.42,0V39.39c6.09,0,12.35-.19,18.58.18,1.11.07,2.54,2.33,3,3.84,4.92,14.31,9.66,28.68,14.47,43A23.41,23.41,0,0,0,254.21,88.86Z"/><path d="M105.73,91.54c2.32-11.08,4.39-21,6.45-30.87,1.19-5.7,2.49-11.38,3.48-17.11.55-3.15,1.81-4.65,5.23-4.27a88.52,88.52,0,0,0,9,.06c-.37,2-.53,3.46-.89,4.84-5,19.14-10.21,38.25-15.1,57.43-.84,3.3-2.37,4.11-5.52,4.1-11.09,0-11.12.09-13.91-10.68-3.3-12.8-6.54-25.61-10.64-38.49-1,3.94-2,7.88-3,11.81-2.91,10.93-6,21.83-8.67,32.8-.82,3.3-2.08,4.62-5.68,4.59-11.58-.11-11.62.06-14.58-11Q45.18,69.66,38.59,44.57c-.38-1.43-.62-2.9-1.1-5.17,4.61,0,8.85-.22,13,.18.93.09,2.11,2.26,2.41,3.64,3.08,14.14,6,28.31,9,42.47.34,1.59.75,3.17,1.5,6.28,2.21-8.1,4-14.74,5.84-21.38,2.37-8.67,4.86-17.3,7-26,.92-3.76,2.32-5.52,6.66-5.35,9.68.37,9.71.08,12,9.68,3.09,12.77,6.14,25.55,9.24,38.31C104.45,88.29,104.93,89.31,105.73,91.54Z"/><path d="M721.84,72.28c0-9.33.13-18.66-.07-28-.08-3.91,1.23-5.26,5.2-5,8.79.53,17.63.34,26.39,1,14.64,1.19,23.36,9.4,26,23.8,3.57,19.22-5.67,35.9-23.63,39.68-10.1,2.13-20.81,1.41-31.25,1.62-.86,0-2.51-2.7-2.55-4.18C721.73,91.59,721.84,81.93,721.84,72.28Zm13.72,0h0c0,4.49-.07,9,0,13.47.17,9.59-1.63,8.63,8.86,8.52,11.8-.11,20.07-7.85,20.83-19.15.94-13.87-4.83-22-17.33-24.14-2.92-.5-6-.14-8.95-.28-2.65-.13-3.46,1.19-3.43,3.63C735.61,60.33,735.56,66.31,735.56,72.29Z"/><path d="M1006.11,105.15c-.06,0-.18.23-.32.24-12,1.51-11.92,1.5-12-10.33,0-6.15,0-12.33-.39-18.46-.42-5.95-3.44-8.91-8.11-8.86s-8.4,3.87-8.61,9.29a224.55,224.55,0,0,0,0,22.47c.32,5.27-1.55,6.91-6.5,6.2a55,55,0,0,0-7,0c0-8.18.06-15.79,0-23.4a53.82,53.82,0,0,0-.69-7.92,7.2,7.2,0,0,0-7.06-6.55,7.81,7.81,0,0,0-8.33,5.12,22.57,22.57,0,0,0-1.31,7.77c-.16,8.11-.06,16.23-.06,24.66H932.61V58.68h12.67c.29,2.25.57,4.44.87,6.8,16.38-10.91,20.2-10.86,29.17-.36,4.55-2.45,8.69-5.58,13.36-7,8.43-2.59,16.34,1.68,17.14,10.32C1006.94,80.55,1006.11,92.86,1006.11,105.15Z"/><path d="M488.64,200.84c-.69.42-.82.57-1,.58-11.84,1.28-11.81,1.28-11.85-10.48,0-6,.09-12-.32-18-.44-6.27-3.49-9.35-8.3-9.23s-8.38,4.15-8.56,9.91c-.22,7-.08,14-.09,21s0,7-7,7h-6.37c0-2.89.05-5.46,0-8-.17-7.64-.16-15.3-.66-22.92-.27-4.11-3-6.67-7.24-6.91a8,8,0,0,0-8.44,5.69,22.07,22.07,0,0,0-1.08,6.82c-.12,8.15,0,16.3,0,24.91H414.57V154.64h12.77c.23,2.29.45,4.39.74,7.22,10.18-9.41,20.18-13.23,29.31-.63,4.28-2.44,8.08-5.58,12.44-6.91,9.78-3,17.93,2.13,18.62,12.14C489.25,177.87,488.64,189.38,488.64,200.84Z"/><path d="M404.22,105.18a10.31,10.31,0,0,1-1.26.39c-14,.64-14,.64-21.63-11.08-2.66-4.12-5.35-8.23-8-12.34l-1.36.39v22.78H358.63V35.72H371.7v43.9l1.64.56,6-9.25,2.17-3.35c6.75-10.49,7.65-10.88,21.26-8.55-4.7,6.17-9,12.19-13.74,17.89-2.25,2.73-2.07,4.64,0,7.33C394.15,91,399,97.91,404.22,105.18Z"/><path d="M343.38,187.8c1.17,12.31,1,12.89-10.74,13.92a59.32,59.32,0,0,1-17.71-.68C301.71,198.1,294,187.71,293,173c-1.3-18.69,8-33.42,24.77-37,6.93-1.49,14.44-.51,21.67-.33,3,.07,4.79,1.71,4.38,5.21a73.76,73.76,0,0,0-.06,8.33c-12.53-3.53-24.82-5.85-33,6.79-5.35,8.25-5.42,17.79.28,25.94C319.43,194,331.47,190.84,343.38,187.8Z"/><path d="M560.72,106.65c-15.51-.23-24.71-9.75-24.66-25.16.06-14.66,9.57-23.94,25.84-24.06,15-.11,24.86,9.94,24.63,24.24C586.28,96.94,576,106.88,560.72,106.65Zm12.07-24.54c.11-10.22-5.48-16-13.84-14.24-5.17,1.06-8.64,5.23-9.2,11-.86,9,1.41,14.34,7,16.5C565.7,98.87,572.68,93.08,572.79,82.11Z"/><path d="M402.91,177.68c-.1,15.42-10.09,25.18-25.55,25-15.17-.21-25-9.94-24.88-24.64.14-15,10.53-24.84,26.07-24.66C393.56,153.53,403,163,402.91,177.68Zm-13.61.3c0-10.25-5-15.58-13.32-14.17-5.49.93-8.84,5-9.62,11.73-.91,7.85,1.53,13.58,6.7,15.75C382.19,195.12,389.27,189.31,389.3,178Z"/><path d="M483,39.36c5.17,0,9.33-.27,13.42.15,1.32.14,2.95,1.87,3.58,3.26,3.92,8.61,7.59,17.32,11.75,26.93,1.32-3.13,2.36-5.6,3.43-8.06,1.92-4.43,3.88-8.84,5.8-13.27,4.41-10.16,5.62-10.75,17.84-8.28-1.87,3.79-3.66,7.47-5.49,11.13-1.56,3.13-3,6.35-4.77,9.34-7.8,12.92-13.22,26.41-10.86,42a12.89,12.89,0,0,1-.3,2.76H504.18c0-5.4.34-10.85-.11-16.23a36.07,36.07,0,0,0-2.74-11.88C495.66,64.79,489.49,52.63,483,39.36Z"/><path d="M628.25,58.57h13v46.67H628.74c-.29-2-.61-4.15-.93-6.26-3.78,2.36-7.06,5.34-10.92,6.63C607,109,598,103.12,597.34,92.67c-.68-10.27-.47-20.62-.31-30.93,0-1.15,2.14-3,3.52-3.24,2.71-.51,5.59-.15,9.38-.15,0,4.89,0,9.46,0,14s-.14,9,.06,13.48c.31,6.86,3.51,10.45,8.93,10.41s9.22-4.17,9.3-10.75C628.32,76.72,628.25,67.93,628.25,58.57Z"/><path d="M668.06,154.55H680.7V176c0,2.5-.09,5,.06,7.49.32,5.26,3.18,8.38,7.82,8.76s9.07-2.54,9.66-7.47c.67-5.6.44-11.3.59-16.95,0-.83,0-1.67,0-2.5,0-11.81,0-11.81,12.58-10.66v46.53H699.5c-.42-2-.88-4.19-1.34-6.36-.51-.37-1-.74-1.52-1.12-.84,1.41-1.42,3.08-2.55,4.19-9.06,8.82-24.09,4.91-25.71-7.55C666.87,178.8,668.06,166.88,668.06,154.55Z"/><path d="M627.42,135.35v11.36c-4.87,0-9.49.2-14.09-.06-3.75-.22-4.9,1.15-4.85,4.85.17,14.67-.1,29.33.16,44,.08,4.61-.89,6.63-6,6.26-7.79-.56-7.84,1.6-7.84-7.84,0-13.67-.14-27.33.08-41,.07-4.58-1-6.93-6.11-6.28-2.78.36-5.68-.18-8.48.12-4.77.51-4.55-2.55-4.49-5.68s-.53-5.91,4.36-5.83C595.8,135.51,611.43,135.35,627.42,135.35Z"/><path d="M538.67,191.18c1.16,8.42.42,9.67-7.32,10.43a60.3,60.3,0,0,1-14.27.09c-11.12-1.58-17.53-9.49-17.86-21.09-.39-13.64,6-23.65,16.77-26.25,17.69-4.26,29.45,7.12,27.29,27.14h-30C512.23,191.75,519.08,194.22,538.67,191.18Zm-25.79-18.27h18c.2-6.78-2.37-10-7.74-10.25C517.07,162.42,513.27,166.13,512.88,172.91Z"/><path d="M762.46,191.29c1.73,7.52.62,9.52-6.71,10.28a61.35,61.35,0,0,1-14.77.11c-11.06-1.54-17.45-9.51-17.76-21.16-.37-13.63,6.08-23.62,16.87-26.17,17.71-4.18,29.68,7.5,27.11,27.2h-30C736.5,191.73,742.29,193.81,762.46,191.29Zm-7.6-18.17c.38-7.23-2.48-10.55-8.55-10.46-5.77.08-9.55,4.33-9.12,10.46Z"/><path d="M177,85.79H147.47c-.7,10.12,6,12.45,25.74,9.28,1.32,8.37.48,9.73-7.74,10.56a57.51,57.51,0,0,1-13.81.11c-11.65-1.69-18.08-9.85-18.34-22.39-.27-12.36,6.79-22.56,17.3-25C168.38,54.2,181,66.86,177,85.79ZM165.21,77c.13-6.95-2.29-10.09-7.64-10.33-6.08-.26-9.82,3.32-10.4,10.33Z"/><path d="M421.62,85.65c.84,10.76,6.35,12.62,25.66,9.55,1.67,7.93.55,9.69-7.58,10.45a60,60,0,0,1-13.79,0c-10.58-1.45-17.36-9-17.61-19.59A42.77,42.77,0,0,1,410,71.92c3.55-10.67,14.13-15.33,23.18-14.37C445.13,58.81,450.84,65,452.09,77c.91,8.7.91,8.7-7.77,8.7Zm18-8.65c.61-6.37-2-10-7.28-10.34-6.37-.4-10.43,3.57-10.42,10.68,4.62,0,9.25,0,13.87,0C437.07,77.32,438.36,77.11,439.6,77Z"/><path d="M839.71,85.65c.44,10.74,7.13,13.07,25.38,9.52,2.07,7.16.82,9.62-6.2,10.38a66.67,66.67,0,0,1-15.27.11c-10-1.28-16.65-8.83-17.38-18.85-.47-6.38-.21-12.67,3.23-18.36,5.32-8.79,15.35-12.61,26.44-10.1,8.08,1.84,13.14,8.56,14.21,18.9.87,8.4.87,8.4-7.6,8.4Zm18.11-8.6c0-7-2.5-10.18-7.83-10.39-6.1-.24-9.85,3.46-10.25,10.39Z"/><path d="M331.77,99.25c-2.33,1.85-4.41,4.09-7,5.41-5.76,3-11.69,2.76-16.84-1.35-4.81-3.85-5.52-9.26-4.19-15,1.64-7.06,7.09-9.7,13.43-10.92,5-1,10.09-1.49,15.07-2.19,0-5.87-2.09-8.64-7.1-8.41-5.53.24-11,1.51-16.54,2.33-1.44-7.91-1.31-8.63,6.95-10.09a58.17,58.17,0,0,1,16.66-.55,13.63,13.63,0,0,1,12.36,13.07c.61,10.29.48,20.62.36,30.93,0,1.06-2,2.87-3.25,3C334.41,106.39,334.24,106.16,331.77,99.25ZM314,90.38c2.29,2.57,3.64,5.47,5.36,5.7,3.13.43,7.4.32,9.49-1.5,2.34-2.06,2.92-6.23,3.94-9.57.14-.43-1.7-2.15-2.51-2.07a38.21,38.21,0,0,0-10.14,1.89C318.05,85.65,316.55,88,314,90.38Z"/><path d="M907.54,105.65c-.48-2.34-.87-4.24-1.21-5.88-4.06,2.18-7.78,4.91-12,6.26a13.26,13.26,0,0,1-16-7.6c-2.86-7.17-.48-15.64,6.08-18.52,4.46-2,9.54-2.5,14.37-3.56,2.54-.56,5.13-.87,7.64-1.28-.35-5.92-2.39-8.52-7.43-8.27-5.51.27-11,1.53-16.46,2.36-1.06-8.3-1.12-8.7,7.23-10.18a55.17,55.17,0,0,1,16.17-.52c7.53.91,12.36,6.21,12.76,13.79.54,10,.45,20,.29,29.94,0,1.17-2.08,3-3.46,3.3C913,106,910.3,105.65,907.54,105.65ZM907,85c-.53-.4-1.68-2-2.89-2-8.87-.42-14.49,2.71-14.54,7.73,0,3.81,3,6.48,7.24,6.47C902.39,97.14,906.88,92.38,907,85Z"/><path d="M1017.27,95.39c5.42.68,10.45,1.79,15.47,1.72,2.27,0,5.76-1.93,6.48-3.83,1.29-3.35-2.22-4.58-4.89-5.61-2.47-1-5-1.71-7.46-2.75-7.42-3.16-10.08-7.1-9.6-14a13.52,13.52,0,0,1,11.91-12.3,60.58,60.58,0,0,1,17.22-.06c6.09.87,2.33,6,3.26,9.33-4.58-.44-8.82-1.34-13-1.05-2.14.15-4.12,2.44-6.18,3.76,1.48,1.77,2.64,4.1,4.52,5.17,3.13,1.79,6.88,2.47,10.1,4.13,9.7,5,10.24,17.37.84,22.92-8.37,4.93-17.46,4.51-26.5,1.88a3.89,3.89,0,0,1-2.09-2.72A47.82,47.82,0,0,1,1017.27,95.39Z"/><path d="M655.68,58.56h12.68c.24,2.65.47,5.21.77,8.71,1.19-1.34,1.88-2.06,2.52-2.84,1.14-1.41,2-3.53,3.42-4.14,2.85-1.2,6-1.56,9.1-2.26.23,3.4.6,6.8.54,10.19,0,.5-2,1.3-3.18,1.38-9,.64-12.58,4.21-12.74,13.5-.13,7.28,0,14.57,0,22.2H655.68Z"/><path d="M642.41,154.78c.25,2.66.49,5.18.78,8.29,2.66-3,4.42-6,7-7.55,2.21-1.3,5.43-.88,8.2-1.22.09,3.43.31,6.86.12,10.27,0,.43-2.21,1-3.41,1-8.32.42-12.11,4.17-12.33,12.87-.2,7.46,0,14.93,0,22.78H629.72V154.78Z"/><path d="M820.75,69.71a75.09,75.09,0,0,0-7.57,0c-4.47.49-8,4.25-8.4,9.76a188,188,0,0,0-.51,20.42c.13,4.59-1.35,6.41-6,5.77a52.6,52.6,0,0,0-6.81,0V58.37a95,95,0,0,1,9.85.06c5.35.56,1.07,5.87,4.13,8.16a25.15,25.15,0,0,1,2-2.73c1.7-1.79,3.23-4,5.31-5.09,5.9-3.15,8-1.73,8,4.95Z"/><path d="M779.73,135.53h13.94c-.62,15-1.24,29.76-1.86,44.83H781.4C780.84,165.49,780.3,150.79,779.73,135.53Z"/><path d="M794.63,195.37c.06,3.83-3.81,7.35-8,7.25s-7.49-3.26-7.55-7c-.07-4,3.47-7.29,7.8-7.22C790.94,188.46,794.58,191.75,794.63,195.37Z"/></clipPath></svg>